
<svg width="750" height="750" viewBox="0 0 750, 750" xmlns="http://www.w3.org/2000/svg">
    <circle cx="280.0" cy="210.0" r="6" fill="white" /><circle cx="185.0" cy="172.0" r="6" fill="white" /><circle cx="180.0" cy="264.0" r="6" fill="white" /><circle cx="144.0" cy="370.0" r="6" fill="white" /><circle cx="188.0" cy="490.0" r="6" fill="white" /><circle cx="306.0" cy="536.0" r="6" fill="white" /><circle cx="238.0" cy="581.0" r="6" fill="white" /><circle cx="211.0" cy="568.0" r="6" fill="white" /><circle cx="158.0" cy="529.0" r="6" fill="white" /><circle cx="110.0" cy="522.0" r="6" fill="white" /><circle cx="157.0" cy="580.0" r="6" fill="white" /><circle cx="222.0" cy="635.0" r="6" fill="white" /><circle cx="281.0" cy="632.0" r="6" fill="white" /><circle cx="281.0" cy="714.0" r="6" fill="white" /><circle cx="464.0" cy="715.0" r="6" fill="white" /><circle cx="458.0" cy="583.0" r="6" fill="white" /><circle cx="435.0" cy="536.0" r="6" fill="white" /><circle cx="548.0" cy="494.0" r="6" fill="white" /><circle cx="585.0" cy="385.0" r="6" fill="white" /><circle cx="558.0" cy="266.0" r="6" fill="white" /><circle cx="556.0" cy="171.0" r="6" fill="white" /><circle cx="460.0" cy="210.0" r="6" fill="white" /><circle cx="370.0" cy="194.0" r="6" fill="white" /><line x1="261" y1="202" x2="203" y2="179" stroke="white" stroke-width="2"/><line x1="183" y1="191" x2="181" y2="244" stroke="white" stroke-width="2"/><line x1="173" y1="282" x2="150" y2="351" stroke="white" stroke-width="2"/><line x1="150" y1="388" x2="181" y2="471" stroke="white" stroke-width="2"/><line x1="206" y1="497" x2="287" y2="528" stroke="white" stroke-width="2"/><line x1="289" y1="547" x2="254" y2="569" stroke="white" stroke-width="2"/><line x1="219" y1="572" x2="229" y2="576" stroke="white" stroke-width="2"/><line x1="194" y1="556" x2="174" y2="540" stroke="white" stroke-width="2"/><line x1="138" y1="526" x2="129" y2="524" stroke="white" stroke-width="2"/><line x1="122" y1="537" x2="144" y2="564" stroke="white" stroke-width="2"/><line x1="172" y1="592" x2="206" y2="622" stroke="white" stroke-width="2"/><line x1="241" y1="633" x2="261" y2="633" stroke="white" stroke-width="2"/><line x1="281" y1="652" x2="281" y2="694" stroke="white" stroke-width="2"/><line x1="300" y1="714" x2="444" y2="714" stroke="white" stroke-width="2"/><line x1="463" y1="695" x2="458" y2="602" stroke="white" stroke-width="2"/><line x1="449" y1="565" x2="443" y2="553" stroke="white" stroke-width="2"/><line x1="453" y1="529" x2="529" y2="500" stroke="white" stroke-width="2"/><line x1="554" y1="475" x2="578" y2="403" stroke="white" stroke-width="2"/><line x1="580" y1="365" x2="562" y2="285" stroke="white" stroke-width="2"/><line x1="557" y1="246" x2="556" y2="190" stroke="white" stroke-width="2"/><line x1="537" y1="178" x2="478" y2="202" stroke="white" stroke-width="2"/><line x1="440" y1="206" x2="389" y2="197" stroke="white" stroke-width="2"/><line x1="350" y1="197" x2="299" y2="206" stroke="white" stroke-width="2"/>
</svg>
