
<svg width="750" height="750" viewBox="0 0 750, 750" xmlns="http://www.w3.org/2000/svg">
    <circle cx="200.0" cy="105.0" r="6" fill="white" /><circle cx="172.17514038085938" cy="172.17514038085938" r="6" fill="white" /><circle cx="105.0" cy="200.0" r="6" fill="white" /><circle cx="37.824859619140625" cy="172.17514038085938" r="6" fill="white" /><circle cx="10.0" cy="105.0" r="6" fill="white" /><circle cx="37.824859619140625" cy="37.824859619140625" r="6" fill="white" /><circle cx="105.0" cy="10.0" r="6" fill="white" /><circle cx="172.17514038085938" cy="37.824859619140625" r="6" fill="white" /><line x1="192" y1="123" x2="179" y2="153" stroke="white" stroke-width="2"/><line x1="153" y1="179" x2="123" y2="192" stroke="white" stroke-width="2"/><line x1="86" y1="192" x2="56" y2="179" stroke="white" stroke-width="2"/><line x1="30" y1="153" x2="17" y2="123" stroke="white" stroke-width="2"/><line x1="17" y1="86" x2="30" y2="56" stroke="white" stroke-width="2"/><line x1="56" y1="30" x2="86" y2="17" stroke="white" stroke-width="2"/><line x1="123" y1="17" x2="153" y2="30" stroke="white" stroke-width="2"/><line x1="179" y1="56" x2="192" y2="86" stroke="white" stroke-width="2"/>
    <circle cx="180.0" cy="273.0" r="6" fill="white" /><circle cx="180.0" cy="740.0" r="6" fill="white" /><circle cx="11.0" cy="740.0" r="6" fill="white" /><circle cx="11.0" cy="273.0" r="6" fill="white" /><line x1="180" y1="293" x2="180" y2="720" stroke="white" stroke-width="2"/><line x1="160" y1="740" x2="31" y2="740" stroke="white" stroke-width="2"/><line x1="11" y1="720" x2="11" y2="293" stroke="white" stroke-width="2"/><line x1="31" y1="273" x2="160" y2="273" stroke="white" stroke-width="2"/>
    <circle cx="250.0" cy="240.0" r="6" fill="white" /><circle cx="420.0" cy="240.0" r="6" fill="white" /><circle cx="420.0" cy="280.0" r="6" fill="white" /><circle cx="480.0" cy="240.0" r="6" fill="white" /><circle cx="560.0" cy="220.0" r="6" fill="white" /><circle cx="660.0" cy="250.0" r="6" fill="white" /><circle cx="740.0" cy="400.0" r="6" fill="white" /><circle cx="740.0" cy="740.0" r="6" fill="white" /><circle cx="570.0" cy="740.0" r="6" fill="white" /><circle cx="570.0" cy="460.0" r="6" fill="white" /><circle cx="540.0" cy="400.0" r="6" fill="white" /><circle cx="500.0" cy="380.0" r="6" fill="white" /><circle cx="460.0" cy="390.0" r="6" fill="white" /><circle cx="425.0" cy="470.0" r="6" fill="white" /><circle cx="425.0" cy="740.0" r="6" fill="white" /><circle cx="250.0" cy="740.0" r="6" fill="white" /><line x1="270" y1="240" x2="400" y2="240" stroke="white" stroke-width="2"/><line x1="420" y1="260" x2="420" y2="260" stroke="white" stroke-width="2"/><line x1="436" y1="268" x2="463" y2="251" stroke="white" stroke-width="2"/><line x1="499" y1="235" x2="540" y2="224" stroke="white" stroke-width="2"/><line x1="579" y1="225" x2="640" y2="244" stroke="white" stroke-width="2"/><line x1="669" y1="267" x2="730" y2="382" stroke="white" stroke-width="2"/><line x1="740" y1="420" x2="740" y2="720" stroke="white" stroke-width="2"/><line x1="720" y1="740" x2="590" y2="740" stroke="white" stroke-width="2"/><line x1="570" y1="720" x2="570" y2="480" stroke="white" stroke-width="2"/><line x1="561" y1="442" x2="548" y2="417" stroke="white" stroke-width="2"/><line x1="522" y1="391" x2="517" y2="388" stroke="white" stroke-width="2"/><line x1="480" y1="384" x2="479" y2="385" stroke="white" stroke-width="2"/><line x1="451" y1="408" x2="433" y2="451" stroke="white" stroke-width="2"/><line x1="425" y1="490" x2="425" y2="720" stroke="white" stroke-width="2"/><line x1="405" y1="740" x2="270" y2="740" stroke="white" stroke-width="2"/><line x1="250" y1="720" x2="250" y2="260" stroke="white" stroke-width="2"/>
</svg>
